<svg width="25" height="24" viewBox="0 0 25 24" fill="none" xmlns="http://www.w3.org/2000/svg">
<g clip-path="url(#clip0_48_9)">
<path d="M19.5712 19.0709C23.4743 15.1676 23.4742 8.83192 19.5709 4.92878C15.6676 1.02563 9.33188 1.02577 5.42873 4.92908C1.52559 8.83239 1.52572 15.1681 5.42904 19.0712C9.33235 22.9744 15.668 22.9742 19.5712 19.0709ZM9.49479 13.9446L13.1646 10.2746L10.7322 10.2747C10.322 10.2747 9.98261 9.9353 9.9826 9.52518C9.9826 9.31305 10.0674 9.1292 10.2018 8.99484C10.3361 8.86049 10.52 8.77563 10.7321 8.77563L14.9748 8.77554C15.3849 8.77553 15.7243 9.11493 15.7243 9.52505L15.7244 13.7677C15.7244 14.1778 15.385 14.5172 14.9749 14.5172C14.5648 14.5173 14.2253 14.1778 14.2253 13.7677L14.2253 11.3353L10.5555 15.0052C10.2656 15.2952 9.78473 15.2952 9.49481 15.0053C9.20489 14.7154 9.20488 14.2345 9.49479 13.9446Z" fill="white"/>
</g>
<defs>
<clipPath id="clip0_48_9">
<rect width="24" height="24" fill="white" transform="translate(0.5)"/>
</clipPath>
</defs>
</svg>
